<svg xmlns="http://www.w3.org/2000/svg" width="24" height="24" viewBox="0 0 24 24" fill="none">
  <path d="M12 24c6.627 0 12-5.373 12-12S18.627 0 12 0 0 5.373 0 12s5.373 12 12 12" fill="#F9A606"/>
  <path d="M23.5 12c0 6.351-5.149 11.5-11.5 11.5S.5 18.351.5 12 5.649.5 12 .5 23.5 5.649 23.5 12Z" stroke="#000" stroke-opacity=".097"/>
  <path fill-rule="evenodd" clip-rule="evenodd" d="M6.037 5H11.9c3.566 0 6.27 1.851 7.275 4.545H21v1.628h-1.442q.043.386.043.786v.04q0 .45-.054.883H21v1.628h-1.86C18.106 17.166 15.424 19 11.9 19H6.036v-4.49H4v-1.628h2.037v-1.709H4V9.545h2.037zm1.639 9.51v3.03h4.223c2.607 0 4.543-1.214 5.444-3.03zm10.17-1.628H7.675v-1.709h10.172q.057.404.057.826v.04q0 .431-.06.843m-5.947-6.424c2.619 0 4.56 1.245 5.457 3.087h-9.68V6.458z" fill="#fff"/>
  <script/>
</svg>
