<svg xmlns="http://www.w3.org/2000/svg" width="24" height="24" fill="none" viewBox="0 0 24 24">
  <g clip-path="url(#a)">
    <path fill="#000" d="M12 24c6.623 0 12-5.37 12-12S18.63 0 12 0 0 5.37 0 12s5.37 12 12 12"/>
    <path fill="#fff" d="M5.385 5.333c-.503.532-.922.975-.93.99 0 .015.45.458 1.013.99s1.05 1.005 1.08 1.035l.06.06-.112.188a6.48 6.48 0 0 0-.578 5.475c.12.345.323.788.495 1.08.083.143.12.232.112.255-.007.015-.517.555-1.133 1.2-.615.637-1.117 1.177-1.125 1.185 0 .015 1.718 1.68 1.882 1.815l.06.053.975-1.013c.375-.39.742-.78 1.11-1.17l.143-.143.135.083c.69.435 1.492.742 2.385.9.45.083 1.297.098 1.778.045a6.5 6.5 0 0 0 2.573-.862l.195-.12.21.203c.45.435 2.138 2.04 2.152 2.047s1.868-1.927 1.86-1.95c0-.015-1.275-1.23-2.047-1.958l-.255-.247.12-.195c.99-1.65 1.2-3.645.555-5.49a8.4 8.4 0 0 0-.54-1.155l-.083-.143 1.08-1.133c.593-.622 1.08-1.14 1.073-1.147-.015-.045-1.912-1.83-1.942-1.83-.015 0-.495.488-1.065 1.08s-1.042 1.08-1.057 1.087a.4.4 0 0 1-.112-.06 8 8 0 0 0-.705-.39 6.5 6.5 0 0 0-1.853-.555c-.345-.053-1.38-.06-1.703-.015-.765.112-1.395.3-2.032.622-.188.09-.398.21-.488.255l-.15.09-.173-.165c-.09-.09-.517-.488-.93-.892-.42-.398-.84-.802-.945-.9l-.188-.18-.915.975zm7.08 2.745a3.94 3.94 0 0 1 1.823.698c.285.195.705.622.9.9a3.89 3.89 0 0 1-.503 5.085 3.87 3.87 0 0 1-4.433.63 3.92 3.92 0 0 1-2.055-2.73c-.075-.383-.075-1.087 0-1.462.075-.367.165-.637.352-1.005a3.87 3.87 0 0 1 3.915-2.115"/>
  </g>
  <defs>
    <clipPath id="a">
      <path fill="#fff" d="M0 0h24v24H0z"/>
    </clipPath>
  </defs>
  <script/>
</svg>
