<svg xmlns="http://www.w3.org/2000/svg" width="24" height="24" viewBox="0 0 24 24" fill="none">
  <path d="M12 0.454h0.001C18.377 0.454 23.547 5.623 23.547 12v0.001c0 6.377 -5.169 11.546 -11.546 11.546H12C5.623 23.547 0.454 18.377 0.454 12.001V12C0.454 5.623 5.623 0.454 12 0.454Z" fill="#111" stroke="#111" stroke-width="0.42524999999999996"/>
  <path d="M12 0.241C5.505 0.241 0.241 5.506 0.241 12v0.001c0 6.494 5.264 11.759 11.759 11.759H12c6.494 0 11.759 -5.264 11.759 -11.759V12C23.759 5.506 18.494 0.241 12 0.241" fill="url(#a)" fill-opacity=".7"/>
  <path d="M12 0.241h-0.001C5.505 0.241 0.241 5.506 0.241 12v0.001c0 6.494 5.264 11.759 11.759 11.759H12c6.494 0 11.759 -5.264 11.759 -11.759V12C23.759 5.506 18.494 0.241 12 0.241Z" stroke="url(#b)" stroke-width="0.4305"/>
  <path fill-rule="evenodd" clip-rule="evenodd" d="M10.118 2.325C5.578 3.2 2.147 7.195 2.147 11.992s3.43 8.791 7.972 9.667v-0.922C6.08 19.875 3.051 16.287 3.051 11.992S6.08 4.108 10.118 3.248zm3.763 0.926V2.328c4.533 0.881 7.954 4.873 7.954 9.663s-3.421 8.783 -7.954 9.664v-0.923c4.03 -0.867 7.051 -4.451 7.051 -8.741S17.912 4.118 13.882 3.25Z" fill="#fff"/>
  <path d="M13.394 11.663q1.127 0.214 1.748 0.828 0.621 0.599 0.621 1.534v0.982q0 1.12 -0.809 1.81 -0.809 0.675 -2.123 0.675h-0.303v1.564h-1.039v-1.564h-0.318q-0.867 0 -1.531 -0.383 -0.664 -0.399 -1.04 -1.104 -0.361 -0.721 -0.361 -1.657h1.04q0 0.951 0.52 1.549 0.535 0.583 1.401 0.583h1.603q0.852 0 1.373 -0.399 0.52 -0.414 0.52 -1.073V14.025q0 -0.521 -0.39 -0.889 -0.376 -0.368 -1.04 -0.476l-2.6 -0.461q-1.098 -0.2 -1.705 -0.828t-0.607 -1.579v-0.828q0 -1.12 0.78 -1.779 0.794 -0.675 2.095 -0.675h0.26V4.945h1.04v1.564h0.332q1.228 0 1.979 0.797 0.751 0.782 0.751 2.071h-1.04q0 -0.844 -0.462 -1.35t-1.228 -0.506H11.228q-0.824 0 -1.315 0.399 -0.491 0.383 -0.491 1.043v0.828q0 0.537 0.361 0.905 0.376 0.368 1.025 0.491z" fill="#fff"/>
  <defs>
    <radialGradient id="a" cx="0" cy="0" r="1" gradientUnits="userSpaceOnUse" gradientTransform="scale(289.409 411.151)rotate(90 .27 .419)">
      <stop offset=".031" stop-color="#3A3A3A"/>
      <stop offset="1" stop-color="#1C1C1C"/>
    </radialGradient>
  </defs>
  <script/>
</svg>
