<svg xmlns="http://www.w3.org/2000/svg" viewBox="0 0 24 24" width="24" height="24">
  <defs>
    <radialGradient id="a" cx="976.277" cy="23.974" fx="976.277" fy="23.974" r="2.069" gradientTransform="rotate(-90 369551.554 387616.136)scale(774.37903)" gradientUnits="userSpaceOnUse">
      <stop offset="0" stop-color="#ffd232"/>
      <stop offset="1" stop-color="#ff6d6d"/>
    </radialGradient>
  </defs>
  <path style="fill:url(#a);stroke-width:0" d="M24 12a12 12 0 0 1 -12 12A12 12 0 0 1 0 12a12 12 0 0 1 24 0"/>
  <path d="M7.411 15.154H5.703c0.14 2.666 2.37 4.984 6.325 4.984 3.938 0 6.448 -2.161 6.448 -4.949 0 -5.297 -7.998 -5.001 -7.998 -8.068 0 -0.853 0.645 -1.865 2.143 -1.865 1.672 0 3.642 1.307 3.781 2.98h1.691c-0.174 -2.701 -2.806 -4.583 -6.152 -4.583 -3.467 0 -6.082 2.021 -6.082 4.88 0 5.454 7.998 4.74 7.998 8.103 0 1.045 -0.645 1.917 -2.265 1.917 -2.021 0 -4.06 -1.411 -4.182 -3.398m1.429 -7.632c0 4.147 7.928 3.329 7.928 7.754 0 1.325 -0.871 2.492 -1.917 2.788 0.366 -0.349 0.645 -1.115 0.645 -1.847 0 -4.095 -7.946 -3.537 -7.946 -7.737 0 -1.411 0.906 -2.544 2.038 -2.893 -0.436 0.523 -0.749 1.202 -0.749 1.934" style="stroke-width:0;fill:#fff"/>
  <script/>
</svg>
