<svg xmlns="http://www.w3.org/2000/svg" width="24" height="24" viewBox="0 0 24 24" fill="none">
  <g clip-path="url(#a)">
    <path fill="#122A5F" d="M24 12a12 12 0 0 1-12 12A12 12 0 0 1 0 12a12 12 0 0 1 24 0"/>
    <path fill-rule="evenodd" clip-rule="evenodd" d="M18.6 12A6.6 6.6 0 0 0 12 5.4V3q.933.002 1.814.183A9 9 0 0 1 21 12a9 9 0 0 1-9 9 9 9 0 0 1-8.488-6H6.12a6.6 6.6 0 0 0 12.48-3M4.038 7.8A9 9 0 0 0 12 12.6v-2.4a6.6 6.6 0 0 1-6.3-4.627A9 9 0 0 0 4.038 7.8m2.677-3.086A5.4 5.4 0 0 0 12 9a3 3 0 1 1 0 6H7.509A5.4 5.4 0 1 0 12 6.6a3 3 0 0 1-3-3v-.088a9 9 0 0 0-2.285 1.202" fill="#fff"/>
  </g>
  <defs>
    <clipPath id="a">
      <path fill="#fff" d="M0 0h24v24H0z"/>
    </clipPath>
  </defs>
  <script/>
</svg>
