<svg xmlns="http://www.w3.org/2000/svg" width="24" height="24" viewBox="0 0 24 24" fill="none">
  <path d="M2.259 7.256v9.323a1.67 1.67 0 0 0 .833 1.442l8.074 4.663a1.67 1.67 0 0 0 1.665 0l8.074-4.663a1.67 1.67 0 0 0 .833-1.442V7.256c0-.595-.318-1.146-.833-1.442l-8.074-4.663a1.67 1.67 0 0 0-1.665 0L3.09 5.814a1.66 1.66 0 0 0-.831 1.442" fill="#213147"/>
  <path d="m13.76 13.726-1.152 3.158a.4.4 0 0 0 0 .271l1.981 5.433 2.291-1.323-2.75-7.539a.197.197 0 0 0-.371 0zm2.309-5.31a.197.197 0 0 0-.371 0l-1.152 3.158a.4.4 0 0 0 0 .271l3.246 8.896 2.291-1.323-4.015-11.002z" fill="#12AAFF"/>
  <path d="M11.998 1.5q.087.001.164.043L20.9 6.588a.33.33 0 0 1 .164.283V16.96a.33.33 0 0 1-.164.283l-8.738 5.045a.3.3 0 0 1-.164.043.35.35 0 0 1-.164-.043l-8.738-5.041a.33.33 0 0 1-.164-.283V6.874c0-.117.062-.224.164-.283l8.738-5.045a.33.33 0 0 1 .164-.045m0-1.473c-.31 0-.623.08-.902.242L2.36 5.313a1.8 1.8 0 0 0-.902 1.561v10.088a1.8 1.8 0 0 0 .902 1.561l8.738 5.045a1.8 1.8 0 0 0 .902.242c.312 0 .623-.08.902-.242l8.738-5.045a1.8 1.8 0 0 0 .902-1.561V6.873a1.8 1.8 0 0 0-.902-1.561L12.9.269a1.8 1.8 0 0 0-.902-.242" fill="#9DCCED"/>
  <path d="m6.219 20.752.804-2.202 1.618 1.345-1.513 1.382z" fill="#213147"/>
  <path d="M11.262 6.152H9.047a.39.39 0 0 0-.371.26L3.928 19.429l2.291 1.323 5.229-14.335a.197.197 0 0 0-.186-.266m3.876.001h-2.215a.39.39 0 0 0-.371.26L7.131 21.276l2.291 1.323 5.902-16.182a.198.198 0 0 0-.186-.266" fill="#fff"/>
  <script/>
</svg>
