<svg xmlns="http://www.w3.org/2000/svg" width="24" height="24" viewBox="0 0 24 24" fill="none">
  <path fill="#E84142" d="M24 12a12 12 0 0 1-12 12A12 12 0 0 1 0 12a12 12 0 0 1 24 0"/>
  <path fill-rule="evenodd" clip-rule="evenodd" d="M9.002 16.21H6.95c-.431 0-.645 0-.775-.083a.53.53 0 0 1-.236-.408c-.007-.154.098-.341.312-.715l5.069-8.935c.215-.38.325-.569.462-.639a.53.53 0 0 1 .473 0c.138.07.247.259.463.639l1.042 1.82.005.009c.233.407.351.613.403.83.057.236.057.486 0 .722-.052.218-.169.427-.405.84l-2.662 4.707-.007.012c-.234.41-.352.618-.517.776a1.6 1.6 0 0 1-.631.366c-.216.06-.458.06-.941.06m5.185 0h2.942c.435 0 .652 0 .782-.086a.53.53 0 0 0 .237-.411c.007-.148-.098-.328-.301-.68l-.021-.038-1.474-2.52-.017-.028c-.207-.35-.312-.527-.446-.596a.52.52 0 0 0-.471 0c-.135.071-.244.255-.46.626l-1.468 2.521-.005.009c-.215.371-.323.556-.315.709a.53.53 0 0 0 .236.41c.128.083.346.083.78.083" fill="#fff"/>
  <script/>
</svg>
