<svg xmlns="http://www.w3.org/2000/svg" viewBox="0 0 24 24" xml:space="preserve" width="24" height="24">
  <path style="fill-rule:evenodd;clip-rule:evenodd;fill:#f0b90b" d="M12 0c6.628 0 12 5.372 12 12s-5.372 12 -12 12S0 18.628 0 12 5.372 0 12 0"/>
  <path style="fill:#fff" d="m6.595 12 0.009 3.173 2.696 1.587v1.858l-4.274 -2.507v-5.038zm0 -3.173v1.849l-1.57 -0.929V7.898l1.57 -0.929L8.173 7.898zm3.831 -0.929 1.57 -0.929 1.578 0.929 -1.578 0.929z"/>
  <path style="fill:#fff" d="M7.73 14.515v-1.858l1.57 0.929v1.849zm2.696 2.91 1.57 0.929 1.578 -0.929v1.849l-1.578 0.929 -1.57 -0.929zm5.4 -9.527 1.57 -0.929 1.578 0.929v1.849l-1.578 0.929V8.827zm1.57 7.275 0.009 -3.173 1.57 -0.929v5.038l-4.274 2.507v-1.858z"/>
  <path style="fill:#fff" d="m16.27 14.515 -1.57 0.92V13.587l1.57 -0.929z"/>
  <path style="fill:#fff" d="m16.27 9.485 0.009 1.858 -2.704 1.587v3.181l-1.57 0.92 -1.57 -0.92v-3.181l-2.704 -1.587V9.485l1.577 -0.929 2.688 1.594 2.704 -1.594 1.578 0.929zM7.73 6.313l4.266 -2.515 4.274 2.515 -1.57 0.929 -2.704 -1.594 -2.696 1.594z"/>
  <script/>
</svg>
