<svg xmlns="http://www.w3.org/2000/svg" width="24" height="24" viewBox="0 0 24 24" fill="none">
  <path fill="#122623" d="M12 0a12 12 0 0 1 12 12 12 12 0 0 1-12 12A12 12 0 0 1 0 12 12 12 0 0 1 12 0"/>
  <path d="M21 11.916c0 5.951-3.642 7.86-5.56 6.161-1.579-1.387-2.049-4.316-4.425-4.617-3.015-.38-3.276 3.636-5.261 3.636-2.31 0-2.754-3.362-2.754-5.088 0-1.766.496-4.172 2.468-4.172 2.296 0 2.428 3.44 5.299 3.257 2.859-.197 2.911-3.78 4.765-5.31C17.149 4.461 21 5.887 21 11.916" fill="#97FCE4"/>
  <script/>
</svg>
