<svg xmlns="http://www.w3.org/2000/svg" width="24" height="24" viewBox="0 0 24 24" fill="none">
  <path d="M16.951 8.952a.45.45 0 0 1-.314.132H5.489c-.394 0-.593-.48-.32-.766L7 6.425a.45.45 0 0 1 .319-.137h11.188c.396 0 .596.485.315.77zm0 8.463a.45.45 0 0 1-.314.13H5.489a.44.44 0 0 1-.32-.747L7 14.95a.45.45 0 0 1 .319-.132h11.188a.44.44 0 0 1 .315.75zm-.314-6.862a.44.44 0 0 1 .314.13l1.87 1.848c.28.275.081.75-.315.75H7.318a.45.45 0 0 1-.32-.131L5.17 11.302a.438.438 0 0 1 .319-.747z" fill="#00FFAD"/>
  <path d="M12 0c6.626 0 12 5.374 12 12s-5.374 12-12 12S0 18.626 0 12 5.374 0 12 0" fill="#000"/>
  <path fill-rule="evenodd" clip-rule="evenodd" d="M5.549 10.855h11.105c.139 0 .27.055.367.154l1.757 1.768a.518.518 0 0 1-.367.884H7.305a.5.5 0 0 1-.367-.154l-1.757-1.769a.518.518 0 0 1 .367-.883M5.182 8.51l1.757-1.769a.52.52 0 0 1 .367-.153h11.102c.46 0 .694.557.367.883L17.021 9.24a.52.52 0 0 1-.367.153H5.549a.518.518 0 0 1-.367-.883m13.593 7.496-1.756 1.768a.52.52 0 0 1-.368.154H5.55a.518.518 0 0 1-.367-.883l1.757-1.77a.52.52 0 0 1 .367-.153h11.102c.46 0 .694.557.367.884" fill="url(#a)"/>
  <defs>
    <linearGradient id="a" x1="5.821" y1="18.416" x2="18.136" y2="6.1" gradientUnits="userSpaceOnUse">
      <stop stop-color="#CB4EE8"/>
      <stop offset="1" stop-color="#10F4B1"/>
    </linearGradient>
  </defs>
  <script/>
</svg>
