<svg xmlns="http://www.w3.org/2000/svg" width="24" height="24" viewBox="0 0 24 24" fill="none">
  <path fill="#2E98F1" d="M24 12a12 12 0 0 1-12 12A12 12 0 0 1 0 12a12 12 0 0 1 24 0"/>
  <path d="M16.842 17.222A5.58 5.58 0 0 1 12 20a5.58 5.58 0 0 1-4.828-2.752l-.014-.026a5.4 5.4 0 0 1-.758-2.779 5.44 5.44 0 0 1 .773-2.804l-.015.026 4.259-7.331A.67.67 0 0 1 12 4a.67.67 0 0 1 .582.331l.002.003 4.258 7.331c.477.797.758 1.755.758 2.778a5.44 5.44 0 0 1-.773 2.805zm-3.642-9.4-.908-1.562a.336.336 0 0 0-.583-.002v.002l-3.494 6.013a4.24 4.24 0 0 0-.592 2.17c0 .495.084.97.24 1.414l-.01-.031c.05-.226.112-.421.188-.608l-.009.025c.482-1.21 1.574-2.144 3.243-2.776 1.148-.432 1.88-1.069 2.178-1.892.384-1.06-.017-2.216-.254-2.752m1.548 2.666-.004.024a3 3 0 0 1-.133.462c-.422 1.176-1.398 2.059-2.898 2.625-1.328.502-2.181 1.201-2.536 2.075l.008-.021a3 3 0 0 0-.19 1.043c0 .394.078.77.21 1.094l-.006-.006a4.38 4.38 0 0 0 2.8 1.002 4.37 4.37 0 0 0 3.786-2.171l-.011.021a4.26 4.26 0 0 0 .604-2.192c0-.8-.22-1.549-.593-2.172z" fill="#fff"/>
  <script/>
</svg>
