<svg xmlns="http://www.w3.org/2000/svg" width="24" height="24" viewBox="0 0 24 24" fill="none">
  <path d="M12.014 23.976c6.617 0 11.976-5.363 11.976-11.976S18.631.024 12.014.024.038 5.387.038 12s5.364 11.976 11.976 11.976" fill="#FF060A"/>
  <path d="M18.75 9.85c-.661-.613-1.578-1.547-2.322-2.207l-.046-.029a1 1 0 0 0-.243-.139C14.34 7.14 5.971 5.574 5.81 5.593a.3.3 0 0 0-.128.048l-.041.034a.5.5 0 0 0-.115.187l-.009.029v.182c.941 2.624 4.662 11.215 5.396 13.235.046.139.128.397.285.412h.037c.083 0 .441-.474.441-.474s6.392-7.748 7.039-8.571a2 2 0 0 0 .22-.326.5.5 0 0 0-.023-.268.6.6 0 0 0-.161-.23m-5.442.905 2.726-2.26 1.601 1.475zm-1.06-.148-4.694-3.85 7.599 1.403zm.422 1.006 4.804-.776-5.492 6.623zM6.917 7.146l4.942 4.19-.716 6.128z" fill="#fff"/>
  <script/>
</svg>
